HIERARCHY
ROOT root
{
	OFFSET 0.000000 0.000000 0.000000
	CHANNELS 6 Xposition Yposition Zposition Zrotation Yrotation Xrotation
	JOINT lhip
	{
		OFFSET 0.058581 -0.082280 -0.017664
		CHANNELS 3 Zrotation Yrotation Xrotation
		JOINT lknee
		{
			OFFSET 0.043451 -0.386469 0.008037
			CHANNELS 3 Zrotation Yrotation Xrotation
			JOINT lankle
			{
				OFFSET -0.014790 -0.426874 -0.037428
				CHANNELS 3 Zrotation Yrotation Xrotation
				JOINT ltoe
				{
					OFFSET 0.041054 -0.060286 0.122042
					CHANNELS 3 Zrotation Yrotation Xrotation
					End Site
					{
						OFFSET 0.000000 0.000000 0.000000
					}
				}
			}
		}
	}
	JOINT rhip
	{
		OFFSET -0.060310 -0.090513 -0.013543
		CHANNELS 3 Zrotation Yrotation Xrotation
		JOINT rknee
		{
			OFFSET -0.043257 -0.383688 -0.004843
			CHANNELS 3 Zrotation Yrotation Xrotation
			JOINT rankle
			{
				OFFSET 0.019056 -0.420046 -0.034562
				CHANNELS 3 Zrotation Yrotation Xrotation
				JOINT rtoe
				{
					OFFSET -0.034840 -0.062106 0.130323
					CHANNELS 3 Zrotation Yrotation Xrotation
					End Site
					{
						OFFSET 0.000000 0.000000 0.000000
					}
				}
			}
		}
	}
	JOINT lowerback
	{
		OFFSET 0.004439 0.124404 -0.038385
		CHANNELS 3 Zrotation Yrotation Xrotation
		JOINT upperback
		{
			OFFSET 0.004488 0.137956 0.026820
			CHANNELS 3 Zrotation Yrotation Xrotation
			JOINT chest
			{
				OFFSET -0.002265 0.056032 0.002855
				CHANNELS 3 Zrotation Yrotation Xrotation
				JOINT lowerneck
				{
					OFFSET -0.013390 0.211636 -0.033468
					CHANNELS 3 Zrotation Yrotation Xrotation
					JOINT upperneck
					{
						OFFSET 0.010113 0.088937 0.050410
						CHANNELS 3 Zrotation Yrotation Xrotation
						End Site
						{
							OFFSET 0.000000 0.000000 0.000000
						}
					}
				}
				JOINT lclavicle
				{
					OFFSET 0.071702 0.114000 -0.018898
					CHANNELS 3 Zrotation Yrotation Xrotation
					JOINT lshoulder
					{
						OFFSET 0.122921 0.045205 -0.019046
						CHANNELS 3 Zrotation Yrotation Xrotation
						JOINT lelbow
						{
							OFFSET 0.255332 -0.015649 -0.022946
							CHANNELS 3 Zrotation Yrotation Xrotation
							JOINT lwrist
							{
								OFFSET 0.265709 0.012698 -0.007375
								CHANNELS 3 Zrotation Yrotation Xrotation
								End Site
								{
									OFFSET 0.000000 0.000000 0.000000
								}
							}
						}
					}
				}
				JOINT rclavicle
				{
					OFFSET -0.082954 0.112472 -0.023707
					CHANNELS 3 Zrotation Yrotation Xrotation
					JOINT rshoulder
					{
						OFFSET -0.113228 0.046853 -0.008472
						CHANNELS 3 Zrotation Yrotation Xrotation
						JOINT relbow
						{
							OFFSET -0.260127 -0.014369 -0.031269
							CHANNELS 3 Zrotation Yrotation Xrotation
							JOINT rwrist
							{
								OFFSET -0.269108 0.006794 -0.006027
								CHANNELS 3 Zrotation Yrotation Xrotation
								End Site
								{
									OFFSET 0.000000 0.000000 0.000000
								}
							}
						}
					}
				}
			}
		}
	}
}
MOTION
Frames: 17
Frame Time: 0.033333
-1.586218 0.293958 1.014927 90.840984 -2.925206 86.964980 -6.455344 -1.741758 -3.163769 -4.707081 -9.303776 3.308872 7.101209 8.947460 -7.983243 0.000000 -0.000000 0.000000 -5.308446 -1.470115 -8.905002 -2.429766 -1.593999 62.664953 3.390191 -14.001463 -2.963592 0.000000 -0.000000 0.000000 -4.957893 1.039047 13.256702 -0.437343 -0.399550 -4.665505 -1.258379 -0.347668 1.902348 5.134806 4.356079 -14.759468 -1.300888 -3.245415 4.328970 -24.588464 7.606462 -0.399351 -51.468522 -3.979804 7.118057 10.024467 -32.302573 5.003919 -4.016181 -2.954189 -6.040530 29.690440 1.586272 -4.532580 54.554781 8.897006 12.080246 -16.231207 14.921772 -17.016524 6.018537 4.430816 -6.203423 
-1.563283 0.298613 1.016301 93.040283 -2.482870 86.126262 -6.783801 -1.035001 -0.393293 -4.223743 -11.288207 2.593224 7.565375 8.854840 -8.338723 0.000000 -0.000000 0.000000 -4.895880 -1.091725 -11.796295 -1.559417 -2.528047 64.692766 4.032958 -13.286735 -4.314359 0.000000 -0.000000 0.000000 -4.857371 -0.228766 13.782785 -0.088056 -0.713819 -4.946154 -1.238091 -1.064557 1.769046 5.216682 4.785398 -13.573303 -1.412441 -3.305242 5.021347 -24.222947 6.560161 -0.393468 -51.076492 -5.277599 7.073321 10.555234 -32.806435 4.292880 -3.532533 -2.372139 -4.898214 29.629268 1.491237 -4.895104 54.647238 8.331561 12.045130 -16.679832 15.951416 -17.111031 6.343661 4.714321 -6.129295 
-1.540526 0.302577 1.017198 94.971096 -1.911573 85.581101 -6.703184 -0.332145 1.867379 -3.920452 -13.120996 2.374963 7.560778 9.051423 -9.270576 0.000000 -0.000000 0.000000 -4.595141 -0.835892 -14.692049 -0.681839 -3.431771 64.308661 4.683260 -12.244637 -5.484386 0.000000 -0.000000 0.000000 -4.623697 -1.468295 14.129510 0.221810 -1.014650 -5.201590 -1.114760 -1.667714 1.738208 5.317069 5.123066 -13.331664 -1.580640 -3.565038 5.844305 -24.094333 5.827472 -0.911672 -50.560318 -6.517512 7.188533 10.805087 -33.450782 3.560663 -2.812344 -2.398967 -4.352840 29.828781 1.205147 -5.402279 54.527711 7.888928 12.036326 -17.153451 17.021574 -16.910836 6.133085 4.873631 -5.575149 
-1.518779 0.306068 1.017900 96.969350 -1.151652 84.625408 -6.069169 0.369904 4.388058 -3.777065 -14.759623 2.533749 7.152878 8.584399 -10.412617 0.000000 -0.000000 0.000000 -4.525747 -0.884895 -16.710554 -0.812166 -5.017670 61.561661 5.203057 -12.008429 -7.143444 0.000000 -0.000000 0.000000 -4.235956 -2.445748 15.064861 0.549845 -1.297246 -5.163717 -0.820441 -2.331470 1.656595 5.214070 5.579035 -12.902433 -1.554944 -3.699523 6.222246 -23.918509 4.604027 -0.816502 -50.372146 -8.051500 7.081808 11.394300 -34.234453 2.446157 -2.331918 -2.297494 -4.233005 29.855030 1.237468 -5.834242 54.316461 7.736952 11.650148 -17.550117 17.704677 -17.144077 6.109348 5.141005 -5.454456 
-1.497087 0.309073 1.018390 98.559246 -0.577755 84.109678 -5.268688 1.301843 6.451820 -3.903107 -16.274678 2.601868 6.497260 7.951764 -11.643328 0.000000 -0.000000 0.000000 -4.699830 -1.349753 -18.720625 -1.370265 -6.450424 57.215252 5.797835 -12.159728 -8.092852 0.000000 -0.000000 0.000000 -3.819196 -3.458790 15.927346 0.682250 -1.700000 -5.493760 -0.605652 -2.810677 1.486942 5.120995 5.822674 -12.739909 -1.551522 -3.590017 6.702609 -23.894756 4.122564 -1.000417 -49.944971 -9.339534 6.912557 11.303482 -35.383485 1.818275 -1.303605 -2.486199 -4.113680 30.095986 1.089113 -6.042216 54.132256 7.620550 11.542934 -17.982009 18.600124 -17.200490 5.563296 5.290487 -4.862179 
-1.476538 0.311438 1.017869 99.860212 -0.070283 83.852626 -4.372567 2.141381 8.216617 -3.979482 -17.370618 2.465352 6.050467 7.231617 -12.505445 0.000000 -0.000000 0.000000 -4.975111 -2.138454 -20.710565 -1.799080 -7.902941 51.427855 6.327164 -12.127280 -8.953020 0.000000 -0.000000 0.000000 -3.364127 -4.051143 16.583211 0.724940 -1.927736 -5.724553 -0.333904 -3.266969 1.264513 4.896887 5.994367 -12.466294 -1.385688 -3.562129 6.865787 -23.604496 3.287587 -0.801987 -50.130677 -10.749457 6.871442 11.556242 -36.166865 1.079678 -0.355224 -2.817794 -4.593110 30.033384 1.065287 -5.864062 54.111507 7.376445 11.426437 -18.597379 19.564457 -17.329571 4.845727 5.434021 -4.754919 
-1.455115 0.313497 1.017474 100.856029 0.161476 83.872604 -3.868072 2.956251 9.963679 -3.699569 -18.829020 2.087404 5.777370 6.986682 -13.030274 0.000000 -0.000000 0.000000 -5.131443 -3.002145 -22.492587 -1.791250 -8.678117 44.724121 7.216471 -12.147542 -8.784509 0.000000 -0.000000 0.000000 -2.791117 -4.811712 17.430684 0.709451 -2.069646 -5.722321 -0.025142 -4.331938 1.679641 3.900870 5.995957 -15.310868 -1.528858 -3.113813 7.102639 -24.366386 4.247353 -3.156137 -49.547738 -11.623762 6.817798 10.006140 -37.800610 2.283379 0.317155 -3.199140 -4.647805 29.885384 0.452053 -7.218502 54.339151 7.998238 11.847556 -18.236379 20.648828 -16.759121 4.876792 5.913641 -3.559116 
-1.435315 0.314527 1.014792 101.250570 0.425316 84.095728 -3.300521 3.338747 11.073337 -3.599524 -18.848851 2.138604 5.618960 6.550593 -14.040410 0.000000 -0.000000 0.000000 -5.082459 -3.366806 -24.192029 -1.678703 -9.745314 37.193032 7.870812 -11.148062 -7.675068 0.000000 -0.000000 0.000000 -2.825312 -4.616926 17.110494 0.641723 -2.182175 -5.917221 0.178139 -3.877489 1.122353 4.680833 6.058492 -12.684568 -0.897610 -3.689474 7.137540 -23.324957 2.163873 -0.782002 -50.589701 -13.243576 7.219443 11.752188 -37.947783 -0.207071 0.782453 -3.356448 -4.462573 30.248952 0.831662 -5.850276 53.908633 7.552950 11.251932 -18.902662 21.033679 -17.971897 5.180081 5.735501 -4.643846 
-1.414066 0.315516 1.012510 101.480621 0.517229 84.711191 -3.009838 3.729219 11.797812 -3.485511 -19.356439 2.362440 5.826746 6.809984 -15.079386 0.000000 -0.000000 0.000000 -4.918564 -3.600742 -25.395394 -1.108701 -10.238336 28.771734 8.835788 -10.192379 -6.247995 0.000000 -0.000000 0.000000 -2.373492 -5.000168 17.332144 0.489497 -2.268151 -6.590449 0.280012 -4.020008 0.937703 4.489099 5.853598 -12.706169 -0.560829 -3.621125 7.588983 -23.421748 2.296643 -0.828652 -50.821065 -13.806105 7.520880 11.247707 -39.118078 0.026936 1.291429 -3.520968 -4.405126 30.261480 0.402754 -5.716986 54.119391 7.627380 11.334243 -18.857444 21.540458 -17.698435 5.015053 5.835507 -4.256895 
-1.392217 0.315777 1.009034 101.621379 0.463944 85.209003 -2.843515 3.982243 12.482030 -3.432513 -19.491497 3.069835 5.371810 6.388294 -16.265960 0.000000 -0.000000 0.000000 -4.619221 -3.673081 -26.047506 -0.545349 -10.045335 20.514334 9.623717 -9.541426 -4.940140 0.000000 -0.000000 0.000000 -2.087310 -5.117592 17.386237 0.354886 -2.429964 -6.797932 0.316763 -4.295845 0.968924 4.266063 6.179455 -13.195283 -0.422787 -3.414143 7.699142 -23.452701 2.342776 -1.014362 -51.052184 -14.493355 8.033383 10.718670 -39.784326 0.663160 1.756884 -4.816692 -4.053766 30.446873 0.145665 -5.927344 54.469887 7.819943 11.673911 -18.957402 21.589191 -17.492459 4.526885 6.085420 -4.420619 
-1.368850 0.315148 1.004396 101.639407 0.210609 85.806672 -2.827027 3.985704 13.150094 -3.529356 -19.463113 3.756280 5.546464 6.566172 -17.274088 0.000000 -0.000000 0.000000 -4.366008 -3.384758 -26.457929 -0.374288 -9.156537 13.537900 10.478330 -8.922576 -4.385491 0.000000 -0.000000 0.000000 -2.089394 -5.050348 16.751805 0.262318 -2.636754 -6.399887 0.339367 -4.605199 1.123693 3.915788 6.970751 -13.565848 -0.082478 -2.949056 7.756876 -23.480724 1.866957 -0.475997 -50.845414 -14.832291 8.395518 10.441431 -40.722213 1.190478 1.691694 -5.324736 -3.348785 30.726237 0.092353 -5.752810 54.777084 8.029107 11.774689 -19.171056 21.868809 -17.328807 4.682206 6.053356 -4.303656 
-1.343369 0.314309 0.998743 102.069111 -0.108096 85.618938 -2.406151 4.815299 14.492811 -4.252995 -19.665774 5.061212 6.635966 6.678668 -18.961265 0.000000 -0.000000 0.000000 -4.758661 -3.477353 -26.290342 -0.071874 -10.249877 10.917457 10.697034 -7.393932 -4.624570 0.000000 -0.000000 0.000000 -2.614189 -4.996520 17.609526 1.317348 -3.534127 -6.664209 0.793827 -4.566662 -0.424038 9.177521 -2.686255 -7.397027 -1.065131 -9.347044 8.838718 -23.903413 1.324941 2.067891 -50.854786 -14.745602 7.492245 10.147187 -41.326374 2.014629 -0.760936 -4.746134 -2.141298 27.999351 0.211004 -3.839848 57.347764 7.757046 10.123859 -19.730898 22.015959 -16.137364 5.648376 5.645164 -3.642011 
-1.317403 0.313919 0.995050 102.920784 -0.193664 86.366564 -2.441909 4.682069 15.170311 -4.068563 -19.559112 5.721307 6.791234 7.603040 -19.451350 0.000000 -0.000000 0.000000 -4.853845 -3.173762 -27.251280 -0.168270 -9.602790 12.304907 10.389913 -9.455945 -3.992942 0.000000 -0.000000 0.000000 -2.018590 -6.363567 16.430347 0.350391 -3.366635 -6.008760 0.006544 -4.955550 1.346465 4.301164 7.053291 -14.066071 -0.266134 -2.770961 7.532689 -23.280845 1.592393 0.288915 -50.439460 -14.611540 8.744889 8.592272 -41.260072 4.564669 0.261261 -5.370172 -1.944729 31.229892 0.052281 -5.775973 55.437148 7.723700 11.842614 -18.884326 21.565775 -16.562576 5.198571 5.782180 -3.853757 
-1.289511 0.312268 0.991415 104.119262 -0.236716 86.661828 -1.885431 4.888703 16.392095 -3.913257 -20.314245 6.520258 6.606989 7.603754 -19.606137 0.000000 -0.000000 0.000000 -4.807034 -2.917834 -27.574168 -0.968424 -10.827387 16.322615 8.827155 -11.097080 -3.366741 0.000000 -0.000000 0.000000 -1.988573 -7.177560 16.341125 0.643271 -3.538036 -5.788869 -0.019291 -5.510402 1.391342 4.419772 7.051802 -14.118290 -0.582573 -2.405003 7.529791 -23.431282 1.520194 0.737696 -49.954580 -14.300295 8.863989 7.560261 -41.082956 7.057814 -0.688816 -5.356237 -0.956456 31.461334 -0.199491 -5.909445 55.629644 7.439058 11.756472 -18.612221 21.016778 -16.285370 5.345552 5.679208 -4.045257 
-1.260030 0.310025 0.990770 105.220378 -0.465560 87.512694 -1.451766 4.474602 16.954049 -3.761053 -20.983880 7.427958 6.369633 7.496740 -18.698554 0.000000 -0.000000 0.000000 -4.620895 -3.029949 -27.314606 -2.177969 -13.237447 18.076754 6.836762 -13.294627 -1.497058 0.000000 -0.000000 0.000000 -1.882183 -7.951141 15.922685 0.825360 -4.079363 -6.054754 -0.076646 -5.557761 1.108431 4.484677 6.435735 -13.489614 -0.579640 -2.070382 7.231544 -23.575663 2.031794 1.107517 -49.676504 -13.626212 8.915836 6.578996 -40.248194 9.653405 -2.014208 -5.280833 -0.341752 31.858425 -0.628349 -5.833625 55.632579 6.855637 11.613922 -18.016881 19.685030 -15.618650 5.622485 5.292728 -4.112342 
-1.228818 0.307399 0.993569 105.230125 -0.390221 88.274558 -0.878631 4.283544 17.197185 -3.762350 -21.230566 9.042208 5.269277 7.190136 -16.962640 0.000000 -0.000000 0.000000 -4.274555 -3.185446 -27.193968 -2.478698 -14.179993 19.177943 7.453581 -14.295571 1.375616 0.000000 -0.000000 0.000000 -1.622117 -8.077924 15.514640 1.032473 -3.706352 -6.028210 0.130605 -5.708797 0.990498 4.364037 6.284122 -13.783402 -0.712980 -1.601541 7.486170 -24.059395 2.736038 1.129717 -50.039478 -13.190278 8.962099 6.521329 -38.338275 10.558756 -2.730075 -4.937815 0.657088 32.124082 -1.225658 -5.992920 55.476192 6.496022 11.516952 -17.328442 17.680812 -15.795432 5.600631 4.943368 -4.123429 
-1.195470 0.304230 0.998516 104.179957 -0.031759 88.873855 -0.270167 4.249156 17.532413 -3.838274 -20.825071 10.963170 3.784325 7.094432 -13.941391 0.000000 -0.000000 0.000000 -3.756673 -2.548206 -26.689725 -1.372554 -14.037977 20.824184 6.569216 -12.941194 0.797535 0.000000 -0.000000 0.000000 -1.131861 -8.155869 15.093543 1.360501 -3.160805 -5.751302 0.267093 -5.202989 0.701425 4.082702 6.182496 -13.517559 -0.853888 -1.485047 6.948020 -24.323911 3.552062 1.120377 -50.830282 -11.937669 8.970379 7.325324 -36.448533 9.938828 -2.958057 -4.539385 0.519485 32.185217 -1.545496 -5.619142 55.393659 6.177417 11.065095 -16.655129 15.717120 -15.248822 5.708458 4.560527 -4.459875 
